<?xml version="1.0" encoding="utf-8"?>
<!-- Generator: Adobe Illustrator 26.0.1, SVG Export Plug-In . SVG Version: 6.00 Build 0)  -->
<svg version="1.1" id="Layer_1" xmlns="http://www.w3.org/2000/svg" xmlns:xlink="http://www.w3.org/1999/xlink" x="0px" y="0px"
	 viewBox="0 0 545 420" style="enable-background:new 0 0 545 420;" xml:space="preserve">
<style type="text/css">
	.st0{fill:#FFFFFF;}
	.st1{fill:none;stroke:#B7BFC4;stroke-width:0.6529;stroke-miterlimit:10;}
	.st2{fill:#689F63;}
	.st3{fill:#FFE39C;}
	.st4{fill:#F15B4E;}
	.st5{fill:#486BB0;}
	.st6{fill:#009CDE;}
	.st7{fill:#725A93;}
	.st8{fill:url(#SVGID_1_);}
	.st9{fill:url(#SVGID_00000175324555849734981780000007659649926214839475_);}
	.st10{fill:url(#SVGID_00000125576776906332640000000009218205823486629793_);}
	.st11{fill:url(#SVGID_00000036246537416006689130000009072129864231261611_);}
	.st12{fill:#32373C;}
	.st13{fill:url(#SVGID_00000122721584661802952750000007590929834419899818_);}
	.st14{fill:url(#SVGID_00000111887142272911889760000000476205902040866714_);}
	.st15{opacity:0.444;fill:url(#SVGID_00000168810626420728196930000014231621947440442000_);enable-background:new    ;}
	.st16{fill:#FF2D20;}
	.st17{fill:#663399;}
	.st18{fill:#231F20;}
	.st19{fill:#53C1DE;}
	.st20{fill:#005AE1;}
</style>
<rect class="st0" width="545" height="420"/>
<circle class="st1" cx="272.66" cy="210" r="116.41"/>
<circle class="st1" cx="272.66" cy="210" r="186.96"/>
<circle class="st0" cx="269.83" cy="326.41" r="21.55"/>
<circle class="st0" cx="353.8" cy="129.68" r="21.55"/>
<circle class="st0" cx="159.83" cy="179.39" r="21.55"/>
<circle class="st0" cx="376.92" cy="259.77" r="21.55"/>
<circle class="st0" cx="456.4" cy="164.66" r="21.55"/>
<circle class="st0" cx="85.7" cy="215.01" r="21.55"/>
<circle class="st0" cx="417.98" cy="326.98" r="21.55"/>
<circle class="st0" cx="111.06" cy="300.27" r="21.55"/>
<circle class="st0" cx="132.61" cy="86.4" r="21.55"/>
<circle class="st0" cx="223.88" cy="103.2" r="21.55"/>
<circle class="st2" cx="293.58" cy="96.17" r="5.55"/>
<circle class="st3" cx="387.65" cy="189.69" r="6.2"/>
<circle class="st4" cx="147.17" cy="348.54" r="3.26"/>
<circle class="st5" cx="328.43" cy="388.44" r="2.61"/>
<circle class="st4" cx="483.28" cy="365.19" r="2.61"/>
<circle class="st6" cx="483.28" cy="54.89" r="2.61"/>
<circle class="st7" cx="412.34" cy="86.4" r="4.24"/>
<circle class="st2" cx="47.17" cy="77.89" r="2.94"/>
<circle class="st7" cx="534.06" cy="225.23" r="2.94"/>
<circle class="st5" cx="207.37" cy="35.05" r="2.94"/>
<circle class="st7" cx="73.17" cy="378.84" r="2.5"/>
<circle class="st3" cx="11.26" cy="200.33" r="3.26"/>
<circle class="st2" cx="452.49" cy="259.77" r="5.55"/>
<circle class="st6" cx="179.01" cy="278.72" r="5.55"/>
<circle class="st5" cx="97.01" cy="145.65" r="5.55"/>
<g>
	<g>
		
			<linearGradient id="SVGID_1_" gradientUnits="userSpaceOnUse" x1="230.3588" y1="394.5144" x2="239.2585" y2="385.6147" gradientTransform="matrix(1 0 0 1 0 -288)">
			<stop  offset="0" style="stop-color:#4578E6"/>
			<stop  offset="0.9" style="stop-color:#2BC0E4"/>
		</linearGradient>
		<polygon class="st8" points="225.89,102.05 237.18,108.63 237.18,95.53 231.73,98.51 		"/>
		
			<linearGradient id="SVGID_00000172427817016063581200000001489216365931118474_" gradientUnits="userSpaceOnUse" x1="229.3716" y1="392.3398" x2="218.3916" y2="405.4254" gradientTransform="matrix(1 0 0 1 0 -288)">
			<stop  offset="0" style="stop-color:#4578E6"/>
			<stop  offset="0.75" style="stop-color:#262D65"/>
		</linearGradient>
		<polygon style="fill:url(#SVGID_00000172427817016063581200000001489216365931118474_);" points="237.17,110.88 223.88,103.2 
			219.48,105.35 210.59,110.88 223.89,118.55 		"/>
		
			<linearGradient id="SVGID_00000140000460857065045850000006369038019423358117_" gradientUnits="userSpaceOnUse" x1="226.3105" y1="378.2887" x2="208.1554" y2="396.4439" gradientTransform="matrix(1 0 0 1 0 -288)">
			<stop  offset="0.15" style="stop-color:#4578E6"/>
			<stop  offset="0.95" style="stop-color:#262D65"/>
		</linearGradient>
		<polygon style="fill:url(#SVGID_00000140000460857065045850000006369038019423358117_);" points="223.88,103.2 223.88,87.86 
			210.59,95.53 210.59,110.88 		"/>
		
			<linearGradient id="SVGID_00000005250066005841599970000011563635806981631617_" gradientUnits="userSpaceOnUse" x1="225.8926" y1="383.5351" x2="237.1756" y2="383.5351" gradientTransform="matrix(1 0 0 1 0 -288)">
			<stop  offset="0" style="stop-color:#4578E6"/>
			<stop  offset="0.55" style="stop-color:#2BC0E4"/>
		</linearGradient>
		<polygon style="fill:url(#SVGID_00000005250066005841599970000011563635806981631617_);" points="237.18,95.53 225.89,89.02 
			225.89,102.05 		"/>
	</g>
</g>
<g>
	<g>
		<g id="Livello_2_00000031919623957859284630000017948718931559045271_">
			<g id="Livello_1-2_00000176757913358434764230000015048933076787572140_">
				<path class="st6" d="M381.91,250.53c-2.24-2.24-4.37-4.37-4.98-6.72c-0.61,2.41-2.74,4.54-4.98,6.72
					c-3.36,3.36-7.16,7.11-7.16,12.82c-0.17,6.66,5.15,12.2,11.87,12.37c6.72,0.17,12.26-5.15,12.43-11.87c0-0.17,0-0.33,0-0.5
					C389.01,257.7,385.26,253.89,381.91,250.53z M370.99,264.47c-0.39,0.45-0.67,0.95-0.95,1.51c-0.06,0.11-0.11,0.17-0.22,0.17
					h-0.11c-0.28,0-0.56-0.5-0.56-0.5l0,0c-0.06-0.11-0.17-0.28-0.22-0.39l-0.06-0.11c-0.72-1.63-0.11-3.87-0.11-3.87l0,0
					c0.28-1.12,0.78-2.18,1.46-3.13c0.39-0.61,0.84-1.18,1.29-1.74l0.56,0.56l2.74,2.74c0.11,0.11,0.11,0.28,0,0.39l-2.85,3.13l0,0
					L370.99,264.47z M377.04,272.36c-2.3,0-4.2-1.91-4.2-4.2c0-1.01,0.39-2.02,1.06-2.74c0.89-1.06,1.96-2.07,3.13-3.47
					c1.4,1.46,2.3,2.52,3.19,3.64c0.06,0.11,0.11,0.17,0.17,0.28c0.5,0.67,0.72,1.51,0.72,2.35
					C381.24,270.52,379.33,272.36,377.04,272.36L377.04,272.36z M384.93,265.7L384.93,265.7c-0.06,0.17-0.22,0.28-0.39,0.33h-0.06
					c-0.17-0.06-0.28-0.17-0.39-0.33l0,0c-0.72-1.06-1.57-2.13-2.46-3.02l-1.12-1.18l-3.7-3.81c-0.78-0.72-1.51-1.46-2.24-2.24
					c0-0.06-0.06-0.06-0.06-0.11c-0.11-0.17-0.22-0.39-0.28-0.56c0-0.06,0-0.06,0-0.11c-0.11-0.61,0.11-1.29,0.56-1.74
					c0.72-0.72,1.46-1.46,2.13-2.18c0.72,0.84,1.57,1.63,2.35,2.41l0,0c1.63,1.51,3.08,3.13,4.37,4.93c1.06,1.51,1.68,3.36,1.68,5.2
					C385.26,264.14,385.15,264.98,384.93,265.7z"/>
			</g>
		</g>
	</g>
</g>
<g>
	<g>
		<g id="Logotype_00000036955213821665137450000004725697873491246778_">
			<g id="W_Mark_00000128471854495310439290000006834320099198742711_">
				<path class="st12" d="M417.98,312.58c1.94,0,3.82,0.38,5.63,1.13c0.87,0.38,1.69,0.82,2.44,1.31c0.75,0.5,1.5,1.13,2.13,1.76
					s1.25,1.38,1.76,2.13c0.5,0.75,0.94,1.57,1.31,2.44c0.75,1.76,1.13,3.7,1.13,5.63s-0.38,3.82-1.13,5.63
					c-0.38,0.87-0.82,1.69-1.31,2.44c-0.5,0.75-1.13,1.5-1.76,2.13s-1.38,1.25-2.13,1.76c-0.75,0.5-1.57,0.94-2.44,1.31
					c-1.76,0.75-3.7,1.13-5.63,1.13c-1.94,0-3.82-0.38-5.63-1.13c-0.87-0.38-1.69-0.82-2.44-1.31c-0.75-0.5-1.5-1.13-2.13-1.76
					s-1.25-1.38-1.76-2.13c-0.5-0.75-0.94-1.57-1.31-2.44c-0.75-1.76-1.13-3.7-1.13-5.63s0.38-3.82,1.13-5.63
					c0.38-0.87,0.82-1.69,1.31-2.44c0.5-0.75,1.13-1.5,1.76-2.13s1.38-1.25,2.13-1.76c0.75-0.5,1.57-0.94,2.44-1.31
					C414.09,312.96,416.04,312.58,417.98,312.58 M417.98,311.64c-8.46,0-15.34,6.89-15.34,15.34c0,8.46,6.89,15.34,15.34,15.34
					s15.34-6.89,15.34-15.34C433.32,318.53,426.43,311.64,417.98,311.64L417.98,311.64z"/>
				<path class="st12" d="M405.14,326.98c0,5.07,2.94,9.45,7.2,11.52l-6.07-16.72C405.58,323.35,405.14,325.11,405.14,326.98z
					 M426.56,326.36c0-1.57-0.56-2.69-1.06-3.51c-0.63-1.06-1.25-1.94-1.25-3c0-1.19,0.87-2.25,2.13-2.25c0.07,0,0.12,0,0.19,0
					c-2.25-2.07-5.32-3.38-8.65-3.38c-4.45,0-8.39,2.32-10.71,5.76c0.31,0,0.56,0,0.82,0c1.31,0,3.38-0.19,3.38-0.19
					c0.69-0.07,0.75,1,0.07,1.06c0,0-0.69,0.07-1.44,0.12l4.64,13.84l2.82-8.39l-2-5.45c-0.69-0.07-1.31-0.12-1.31-0.12
					c-0.69-0.07-0.63-1.06,0.07-1.06c0,0,2.13,0.19,3.38,0.19c1.31,0,3.38-0.19,3.38-0.19c0.69-0.07,0.75,1,0.07,1.06
					c0,0-0.69,0.07-1.44,0.12l4.64,13.72l1.31-4.2C426.24,328.74,426.56,327.43,426.56,326.36z M418.17,328.11l-3.82,11.15
					c1.13,0.31,2.38,0.5,3.63,0.5c1.5,0,2.94-0.25,4.26-0.75c-0.07-0.07-0.07-0.12-0.07-0.19L418.17,328.11z M429.19,320.84
					c0.07,0.44,0.07,0.82,0.07,1.31c0,1.31-0.25,2.76-1,4.57L424.37,338c3.82-2.19,6.39-6.33,6.39-11.02
					C430.75,324.73,430.19,322.67,429.19,320.84z"/>
			</g>
		</g>
	</g>
</g>
<g>
	<g>
		<g>
			
				<linearGradient id="SVGID_00000105401997755073692630000017905254366323521166_" gradientUnits="userSpaceOnUse" x1="-5416.0679" y1="2237.925" x2="-5411.3501" y2="2233.8665" gradientTransform="matrix(2.9618 0 0 -2.9907 16187.8027 6858.9658)">
				<stop  offset="0" style="stop-color:#5A9FD4"/>
				<stop  offset="1" style="stop-color:#306998"/>
			</linearGradient>
			<path style="fill:url(#SVGID_00000105401997755073692630000017905254366323521166_);" d="M159.66,165.27
				c-1.06,0-2.02,0.1-2.94,0.25c-2.59,0.46-3.04,1.42-3.04,3.19v2.33h6.12v0.76h-8.4c-1.77,0-3.34,1.06-3.8,3.09
				c-0.55,2.33-0.61,3.8,0,6.23c0.46,1.82,1.47,3.09,3.24,3.09h2.08v-2.79c0-2.02,1.72-3.8,3.8-3.8h6.08c1.72,0,3.04-1.42,3.04-3.09
				v-5.82c0-1.67-1.42-2.89-3.04-3.19C161.78,165.33,160.72,165.27,159.66,165.27L159.66,165.27z M156.37,167.15
				c0.61,0,1.16,0.51,1.16,1.16c0,0.65-0.51,1.16-1.16,1.16c-0.66,0-1.16-0.51-1.16-1.16C155.2,167.66,155.71,167.15,156.37,167.15
				L156.37,167.15z"/>
			
				<linearGradient id="SVGID_00000125598971091731898310000011985453628538485648_" gradientUnits="userSpaceOnUse" x1="-5409.5142" y1="2231.4194" x2="-5411.1992" y2="2233.8027" gradientTransform="matrix(2.9618 0 0 -2.9907 16187.8027 6858.9658)">
				<stop  offset="0" style="stop-color:#FFD43B"/>
				<stop  offset="1" style="stop-color:#FFE873"/>
			</linearGradient>
			<path style="fill:url(#SVGID_00000125598971091731898310000011985453628538485648_);" d="M166.64,171.8v2.74
				c0,2.13-1.77,3.85-3.8,3.85h-6.08c-1.67,0-3.04,1.42-3.04,3.09v5.82c0,1.67,1.42,2.63,3.04,3.09c1.93,0.56,3.8,0.66,6.08,0
				c1.52-0.46,3.04-1.32,3.04-3.09v-2.33h-6.08v-0.76h9.17c1.77,0,2.43-1.21,3.04-3.09c0.66-1.93,0.61-3.75,0-6.23
				c-0.46-1.77-1.27-3.09-3.04-3.09H166.64z M163.2,186.54c0.66,0,1.16,0.51,1.16,1.16c0,0.65-0.51,1.16-1.16,1.16
				c-0.61,0-1.16-0.51-1.16-1.16C162.09,187.05,162.6,186.54,163.2,186.54z"/>
			
				<radialGradient id="SVGID_00000006670162953160926750000009916203239042690716_" cx="-7245.0947" cy="1059.3557" r="1.3871" gradientTransform="matrix(0 -1.1436 -5.0279 0 5486.1948 -8091.2192)" gradientUnits="userSpaceOnUse">
				<stop  offset="0" style="stop-color:#B8B8B8;stop-opacity:0.498"/>
				<stop  offset="1" style="stop-color:#7F7F7F;stop-opacity:0"/>
			</radialGradient>
			
				<path style="opacity:0.444;fill:url(#SVGID_00000006670162953160926750000009916203239042690716_);enable-background:new    ;" d="
				M168.06,194.39c0,0.86-3.64,1.57-8.2,1.57c-4.51,0-8.2-0.71-8.2-1.57c0-0.86,3.64-1.57,8.2-1.57
				C164.37,192.77,168.06,193.48,168.06,194.39z"/>
		</g>
	</g>
</g>
<g>
	<g>
		<g>
			<path class="st16" d="M284.14,319.93c0,0.04,0,0.08,0,0.12v5.63c0,0.12-0.08,0.29-0.21,0.34l-4.75,2.71v5.38
				c0,0.12-0.08,0.29-0.21,0.34l-9.87,5.68c-0.04,0-0.04,0-0.08,0.04c0,0,0,0-0.04,0c-0.08,0-0.12,0-0.21,0h-0.04
				c-0.04,0-0.04,0-0.08-0.04l-9.87-5.68c-0.12-0.08-0.21-0.21-0.21-0.34v-16.87c0-0.04,0-0.08,0-0.12v-0.04
				c0-0.04,0-0.04,0.04-0.08c0,0,0-0.04,0.04-0.04l0.04-0.04c0,0,0.04,0,0.04-0.04l0.04-0.04l0,0l4.96-2.84
				c0.12-0.08,0.29-0.08,0.42,0l4.96,2.84l0,0l0.04,0.04c0,0,0.04,0,0.04,0.04l0.04,0.04c0,0,0,0.04,0.04,0.04c0,0,0,0.04,0.04,0.08
				v0.04c0,0.04,0,0.08,0,0.12v10.55l4.15-2.37v-5.38c0-0.04,0-0.08,0-0.12v-0.04c0-0.04,0-0.04,0.04-0.08c0,0,0-0.04,0.04-0.04
				l0.04-0.04c0,0,0.04,0,0.04-0.04l0.04-0.04l0,0l4.96-2.84c0.12-0.08,0.29-0.08,0.42,0l4.96,2.84l0.04,0.04c0,0,0.04,0,0.04,0.04
				l0.04,0.04c0,0,0,0.04,0.04,0.04C284.14,319.85,284.14,319.89,284.14,319.93L284.14,319.93L284.14,319.93z M283.33,325.44v-4.66
				l-1.74,0.97l-2.37,1.36v4.7L283.33,325.44L283.33,325.44z M278.42,333.91v-4.66l-2.33,1.36l-6.69,3.81v4.75L278.42,333.91z
				 M259.47,317.98v15.93l9.07,5.21v-4.75l-4.75-2.67l0,0l0,0l-0.04-0.04c0,0-0.04,0-0.04-0.04l0,0l-0.04-0.04l-0.04-0.04l0,0
				c0,0,0-0.04-0.04-0.04v-0.04l0,0v-0.04v-0.04v-11.02l-2.37-1.36L259.47,317.98L259.47,317.98z M264.01,314.89l-4.11,2.37
				l4.11,2.37l4.11-2.37L264.01,314.89L264.01,314.89z M266.13,329.68l2.37-1.36v-10.34l-1.74,0.97l-2.37,1.4v10.34L266.13,329.68z
				 M278.79,317.68l-4.11,2.37l4.11,2.37l4.11-2.37L278.79,317.68z M278.42,323.15l-2.42-1.4l-1.74-0.97v4.66l2.37,1.36l1.74,0.97
				v-4.62L278.42,323.15L278.42,323.15z M268.92,333.7l6.01-3.43l3.01-1.74l-4.07-2.37l-4.75,2.71l-4.32,2.5L268.92,333.7z"/>
		</g>
	</g>
</g>
<g>
	<g>
		<g id="XMLID_00000039124130493224572350000011801042228833779098_">
			<path id="XMLID_00000181776202457316006650000010285613452465092279_" class="st2" d="M85.93,229.11c-0.39,0-0.78-0.08-1.09-0.24
				l-3.51-2.02c-0.47-0.24-0.24-0.39-0.08-0.39c0.7-0.24,0.78-0.24,1.56-0.78c0.08,0,0.24,0,0.24,0l2.65,1.56
				c0.08,0.08,0.24,0.08,0.31,0l10.36-6c0.08-0.08,0.16-0.16,0.16-0.24v-11.92c0-0.16-0.08-0.24-0.16-0.24l-10.36-6
				c-0.08-0.08-0.24-0.08-0.31,0l-10.36,6c-0.08,0.08-0.16,0.16-0.16,0.24V221c0,0.16,0.08,0.24,0.16,0.24l2.81,1.64
				c1.56,0.78,2.42-0.16,2.42-1.01v-11.84c0-0.16,0.16-0.24,0.31-0.24h1.33c0.16,0,0.24,0.16,0.24,0.24v11.77
				c0,2.02-1.17,3.19-3.04,3.19c-0.62,0-1.09,0-2.42-0.7l-2.73-1.56c-0.7-0.39-1.09-1.09-1.09-1.87v-11.77
				c0-0.78,0.39-1.48,1.09-1.87l10.36-6c0.7-0.39,1.56-0.39,2.18,0l10.36,6c0.7,0.39,1.09,1.09,1.09,1.87v11.92
				c0,0.78-0.39,1.48-1.09,1.87l-10.36,6C86.71,228.95,86.33,229.11,85.93,229.11"/>
			<path id="XMLID_00000046326984914912810570000002211941596235167901_" class="st2" d="M89.13,220.85c-4.52,0-5.45-2.02-5.45-3.82
				c0-0.16,0.16-0.24,0.31-0.24h1.33c0.16,0,0.24,0.08,0.24,0.24c0.24,1.33,0.78,2.02,3.51,2.02c2.18,0,3.11-0.47,3.11-1.64
				c0-0.7-0.24-1.17-3.58-1.48c-2.81-0.24-4.6-0.86-4.6-3.19c0-2.1,1.79-3.35,4.68-3.35c3.35,0,4.99,1.17,5.15,3.58
				c0,0.08,0,0.16-0.08,0.24c-0.08,0.08-0.16,0.08-0.24,0.08h-1.33c-0.16,0-0.24-0.08-0.24-0.24c-0.31-1.4-1.09-1.87-3.19-1.87
				c-2.42,0-2.65,0.78-2.65,1.4c0,0.78,0.31,0.93,3.51,1.4c3.19,0.39,4.68,1.01,4.68,3.27C94.35,219.52,92.4,220.85,89.13,220.85"/>
		</g>
	</g>
</g>
<g>
	<path class="st17" d="M111.06,285.58c-8.09,0-14.69,6.6-14.69,14.69s6.6,14.69,14.69,14.69s14.69-6.6,14.69-14.69
		S119.16,285.58,111.06,285.58z M102.86,308.46c-2.21-2.21-3.35-5.15-3.35-7.99l11.45,11.34
		C108.02,311.72,105.08,310.68,102.86,308.46z M113.59,311.51l-13.76-13.76c1.14-5.15,5.77-9.02,11.24-9.02
		c3.87,0,7.22,1.91,9.33,4.74l-1.6,1.34c-1.8-2.42-4.64-3.97-7.78-3.97c-4.07,0-7.58,2.63-8.92,6.29l12.06,12.06
		c3.04-1.03,5.36-3.66,6.09-6.8h-5.05v-2.12h7.32C122.61,305.74,118.74,310.33,113.59,311.51z"/>
</g>
<g>
	<path class="st5" d="M352.09,127.47c0.09,0.07,0.2,0.1,0.33,0.1c0.3,0,0.54-0.24,0.55-0.53l0.01-0.01l0.19-3.3
		c-0.22,0.03-0.45,0.07-0.67,0.12c-1.23,0.28-2.29,0.88-3.13,1.7L352.09,127.47L352.09,127.47z"/>
	<path class="st5" d="M354.95,127.03c0.01,0.11,0.05,0.23,0.12,0.32c0.19,0.24,0.52,0.27,0.76,0.1l0.01,0.01l2.69-1.91
		c-1.02-0.99-2.34-1.65-3.77-1.82L354.95,127.03L354.95,127.03z"/>
	<path class="st5" d="M350.65,129.96c0.11-0.03,0.21-0.09,0.29-0.19c0.19-0.24,0.15-0.57-0.07-0.76V129l-2.47-2.21
		c-0.73,1.19-1.08,2.63-0.92,4.11l3.17-0.91L350.65,129.96z"/>
	<path class="st5" d="M351.74,132.31c-0.06-0.25-0.28-0.43-0.54-0.43l0,0c-0.03,0-0.07,0-0.11,0.01l-0.01-0.01l-3.25,0.56
		c0.5,1.39,1.44,2.52,2.62,3.28l1.26-3.04l-0.01-0.01C351.75,132.55,351.76,132.42,351.74,132.31z"/>
	<polygon class="st5" points="353.05,130.93 353.97,131.37 354.88,130.93 355.1,129.96 354.48,129.17 353.46,129.17 352.83,129.96 	
		"/>
	<path class="st5" d="M354.46,133.5c-0.05-0.1-0.14-0.18-0.25-0.24c-0.08-0.04-0.17-0.06-0.26-0.05c-0.19,0.01-0.37,0.11-0.47,0.29
		l0,0l-1.6,2.89c1.11,0.38,2.33,0.46,3.56,0.18c0.22-0.05,0.43-0.11,0.64-0.18l-1.61-2.9L354.46,133.5L354.46,133.5z"/>
	<path class="st5" d="M369.06,132.87l-2.6-11.3c-0.14-0.59-0.54-1.09-1.09-1.35l-10.53-5.03c-0.31-0.14-0.64-0.22-0.97-0.2l0,0
		c-0.27,0.01-0.53,0.08-0.77,0.2l-10.53,5.03c-0.55,0.26-0.95,0.76-1.09,1.35l-2.6,11.3c-0.12,0.53-0.02,1.08,0.27,1.53
		c0.03,0.05,0.07,0.11,0.12,0.16l7.29,9.06c0.39,0.48,0.96,0.75,1.57,0.75h11.69c0.61,0,1.19-0.27,1.57-0.75l7.29-9.06
		C369.05,134.09,369.19,133.46,369.06,132.87z M365.06,132.74c-0.08,0.34-0.44,0.54-0.82,0.46h-0.01c-0.01,0-0.01,0-0.01-0.01
		c-0.05-0.01-0.12-0.02-0.16-0.03c-0.22-0.06-0.37-0.14-0.57-0.22c-0.42-0.15-0.76-0.27-1.1-0.32c-0.17-0.01-0.26,0.07-0.35,0.13
		c-0.05-0.01-0.19-0.03-0.27-0.05c-0.6,1.9-1.89,3.54-3.63,4.57c0.03,0.07,0.08,0.23,0.1,0.25c-0.04,0.1-0.1,0.21-0.05,0.37
		c0.12,0.32,0.32,0.63,0.56,1c0.12,0.17,0.24,0.31,0.34,0.5c0.03,0.05,0.06,0.12,0.08,0.17c0.16,0.35,0.05,0.74-0.27,0.89
		c-0.31,0.15-0.71-0.01-0.87-0.36c-0.03-0.05-0.06-0.12-0.08-0.16c-0.09-0.2-0.12-0.38-0.18-0.57c-0.14-0.42-0.26-0.76-0.43-1.06
		c-0.1-0.14-0.22-0.16-0.32-0.2c-0.02-0.03-0.09-0.17-0.14-0.24c-0.35,0.13-0.71,0.24-1.08,0.33c-1.63,0.37-3.27,0.22-4.73-0.34
		l-0.14,0.26c-0.1,0.03-0.21,0.06-0.27,0.13c-0.23,0.27-0.32,0.71-0.49,1.13c-0.07,0.2-0.09,0.37-0.18,0.57
		c-0.02,0.05-0.05,0.11-0.08,0.16l0,0l0,0c-0.17,0.35-0.55,0.51-0.87,0.35c-0.31-0.15-0.43-0.55-0.27-0.89
		c0.03-0.05,0.06-0.12,0.08-0.17c0.1-0.2,0.22-0.33,0.34-0.5c0.24-0.37,0.45-0.71,0.57-1.03c0.03-0.1-0.01-0.25-0.06-0.36l0.12-0.27
		c-1.68-0.99-3-2.58-3.64-4.54l-0.27,0.05c-0.07-0.04-0.22-0.14-0.36-0.13c-0.34,0.05-0.68,0.18-1.1,0.32
		c-0.2,0.07-0.35,0.16-0.57,0.22c-0.05,0.01-0.11,0.03-0.16,0.04c-0.01,0-0.01,0-0.01,0.01h-0.01c-0.37,0.08-0.74-0.12-0.82-0.46
		c-0.08-0.34,0.16-0.68,0.54-0.77h0.01h0.01c0.05-0.01,0.12-0.03,0.17-0.04c0.22-0.04,0.4-0.03,0.61-0.05
		c0.44-0.05,0.8-0.08,1.13-0.18c0.1-0.04,0.2-0.18,0.27-0.27l0.26-0.08c-0.29-2.05,0.2-4.05,1.29-5.69l-0.2-0.18
		c-0.01-0.08-0.03-0.26-0.12-0.37c-0.25-0.24-0.56-0.42-0.94-0.66c-0.18-0.1-0.35-0.18-0.52-0.31c-0.04-0.03-0.09-0.07-0.13-0.1
		l-0.01-0.01c-0.3-0.24-0.37-0.66-0.16-0.93c0.12-0.15,0.31-0.23,0.5-0.22c0.15,0.01,0.31,0.06,0.44,0.16
		c0.05,0.03,0.1,0.08,0.14,0.11c0.17,0.14,0.27,0.29,0.42,0.44c0.31,0.31,0.57,0.57,0.85,0.77c0.15,0.08,0.26,0.05,0.37,0.04
		c0.04,0.03,0.16,0.11,0.23,0.16c1.07-1.14,2.48-1.98,4.12-2.35c0.38-0.08,0.76-0.14,1.14-0.18l0.01-0.27
		c0.08-0.08,0.18-0.2,0.2-0.33c0.03-0.34-0.02-0.71-0.07-1.14c-0.03-0.2-0.08-0.38-0.08-0.6c0-0.05,0-0.11,0-0.16
		c0-0.01,0-0.01,0-0.02c0-0.39,0.28-0.7,0.63-0.7c0.35,0,0.63,0.31,0.63,0.7c0,0.05,0,0.13,0,0.18c-0.01,0.22-0.06,0.39-0.08,0.6
		c-0.05,0.44-0.1,0.8-0.07,1.14c0.03,0.17,0.12,0.24,0.21,0.31c0,0.05,0.01,0.2,0.01,0.28c2,0.18,3.87,1.1,5.23,2.53l0.24-0.17
		c0.08,0.01,0.26,0.03,0.39-0.04c0.28-0.19,0.54-0.45,0.85-0.77c0.14-0.15,0.25-0.29,0.42-0.44c0.04-0.03,0.1-0.08,0.14-0.11
		c0.3-0.24,0.72-0.22,0.94,0.06c0.22,0.27,0.15,0.69-0.16,0.93c-0.05,0.03-0.1,0.08-0.14,0.11c-0.18,0.13-0.35,0.2-0.52,0.31
		c-0.38,0.24-0.69,0.42-0.94,0.66c-0.12,0.12-0.11,0.24-0.12,0.36c-0.03,0.03-0.16,0.14-0.22,0.2c0.54,0.81,0.95,1.72,1.18,2.73
		c0.23,0.99,0.26,1.98,0.13,2.94l0.25,0.07c0.05,0.07,0.14,0.22,0.27,0.27c0.33,0.1,0.69,0.14,1.13,0.18
		c0.21,0.02,0.39,0.01,0.61,0.05c0.05,0.01,0.13,0.03,0.18,0.05C364.89,132.06,365.13,132.4,365.06,132.74z"/>
	<path class="st5" d="M359.52,126.78L359.52,126.78l-2.46,2.2v0.01c-0.08,0.07-0.15,0.18-0.18,0.29c-0.07,0.29,0.11,0.58,0.39,0.66
		v0.01l3.19,0.92c0.07-0.69,0.03-1.4-0.14-2.12C360.16,128.04,359.89,127.38,359.52,126.78z"/>
	<path class="st5" d="M356.84,131.87c-0.04-0.01-0.08-0.01-0.13-0.01l0,0c-0.07,0.01-0.14,0.02-0.22,0.05
		c-0.27,0.13-0.39,0.45-0.27,0.72l-0.01,0.01l1.27,3.08c1.23-0.78,2.15-1.95,2.62-3.3L356.84,131.87L356.84,131.87z"/>
</g>
<g>
	<g>
		<g>
			<path class="st18" d="M470.44,164.66c0,7.76-6.27,14.04-14.04,14.04s-14.04-6.27-14.04-14.04c0-7.76,6.27-14.04,14.04-14.04
				S470.44,156.9,470.44,164.66z"/>
			<path class="st0" d="M462.54,155.8c-1.45,0.05-2.68,0.84-3.6,1.93c-1.01,1.18-1.71,2.59-2.19,4.04c-0.87-0.7-1.58-1.67-2.98-2.06
				c-1.1-0.31-2.24-0.18-3.29,0.61c-0.48,0.35-0.84,0.92-1.01,1.45c-0.44,1.36,0.44,2.59,0.84,3.03l0.87,0.92
				c0.18,0.18,0.61,0.66,0.39,1.32c-0.22,0.74-1.1,1.23-2.02,0.92c-0.39-0.13-1.01-0.44-0.87-0.84c0.05-0.18,0.18-0.31,0.26-0.44
				c0.05-0.13,0.08-0.22,0.08-0.31c0.18-0.53-0.05-1.23-0.66-1.45c-0.53-0.18-1.1-0.05-1.32,0.66c-0.26,0.79,0.13,2.24,2.19,2.85
				c2.37,0.74,4.39-0.57,4.69-2.28c0.18-1.05-0.31-1.84-1.18-2.85l-0.7-0.79c-0.44-0.44-0.57-1.18-0.13-1.76
				c0.39-0.48,0.92-0.7,1.8-0.44c1.27,0.35,1.84,1.23,2.81,1.97c-0.39,1.32-0.66,2.59-0.87,3.77l-0.13,0.87
				c-0.71,3.6-1.23,5.57-2.59,6.71c-0.26,0.18-0.66,0.48-1.27,0.53c-0.31,0-0.39-0.22-0.39-0.31c0-0.22,0.18-0.31,0.31-0.39
				c0.18-0.08,0.44-0.26,0.44-0.79c0-0.61-0.53-1.14-1.27-1.14c-0.57,0-1.4,0.53-1.36,1.49c0.05,1.01,0.97,1.76,2.37,1.71
				c0.74-0.05,2.42-0.31,4.04-2.28c1.93-2.24,2.46-4.78,2.85-6.67l0.44-2.46c0.26,0.05,0.53,0.05,0.79,0.05
				c2.37,0.05,3.55-1.18,3.6-2.06c0-0.53-0.35-1.1-0.87-1.05c-0.35,0-0.84,0.26-0.92,0.74c-0.08,0.48,0.74,0.97,0.08,1.4
				c-0.48,0.31-1.36,0.53-2.55,0.35l0.22-1.23c0.44-2.32,1.01-5.18,3.11-5.22c0.18,0,0.71,0,0.74,0.39c0,0.13-0.05,0.18-0.18,0.44
				c-0.13,0.22-0.22,0.39-0.22,0.61c0,0.57,0.48,0.97,1.14,0.97c0.87-0.05,1.14-0.87,1.1-1.32
				C465.04,156.41,463.94,155.75,462.54,155.8z"/>
		</g>
	</g>
</g>
<g>
	<g>
		<g>
			<path class="st0" d="M116.29,86.25c0,2.46,2.4,4.75,6.19,6.08c-0.74,3.79-0.16,6.88,1.92,8.11c2.14,1.23,5.33,0.37,8.33-2.24
				c2.93,2.51,5.92,3.52,8,2.34c2.14-1.23,2.78-4.53,2.02-8.43c3.95-1.28,6.19-3.25,6.19-5.76c0-2.4-2.4-4.48-6.14-5.76
				c0.86-4.11,0.1-7.1-2.02-8.33c-2.08-1.23-5.07-0.16-8.06,2.46c-3.09-2.78-6.08-3.57-8.27-2.34c-2.08,1.23-2.66,4.32-1.92,8.21
				C118.8,81.72,116.29,83.85,116.29,86.25z"/>
			<path class="st19" d="M141.95,81.77c-0.32-0.1-0.59-0.22-0.91-0.32c0.05-0.22,0.1-0.42,0.16-0.64c0.69-3.41,0.27-6.19-1.33-7.1
				c-1.5-0.86-4,0.05-6.51,2.19c-0.27,0.22-0.48,0.42-0.74,0.64c-0.16-0.16-0.32-0.32-0.48-0.42c-2.61-2.34-5.23-3.31-6.83-2.4
				c-1.5,0.86-1.97,3.47-1.33,6.72c0.05,0.32,0.1,0.64,0.22,0.96c-0.37,0.1-0.74,0.22-1.06,0.32c-3.09,1.06-5.01,2.72-5.01,4.48
				c0,1.82,2.08,3.57,5.28,4.69c0.27,0.1,0.54,0.16,0.8,0.27c-0.1,0.37-0.16,0.69-0.22,1.01c-0.59,3.2-0.1,5.71,1.38,6.61
				c1.55,0.91,4.16,0,6.72-2.24c0.22-0.16,0.42-0.37,0.59-0.54c0.27,0.27,0.54,0.48,0.8,0.69c2.46,2.14,4.91,2.99,6.4,2.08
				c1.55-0.91,2.08-3.63,1.38-6.93c-0.05-0.27-0.1-0.54-0.16-0.8c0.16-0.05,0.37-0.1,0.54-0.16c3.31-1.12,5.5-2.88,5.5-4.69
				C147.12,84.55,145.1,82.84,141.95,81.77L141.95,81.77L141.95,81.77z"/>
			<path class="st0" d="M141.25,89.77c-0.16,0.05-0.32,0.1-0.48,0.16c-0.37-1.18-0.86-2.4-1.5-3.68c0.59-1.23,1.06-2.46,1.38-3.63
				c0.32,0.1,0.59,0.16,0.86,0.27c2.66,0.91,4.32,2.29,4.32,3.36C145.89,87.38,144.14,88.81,141.25,89.77L141.25,89.77L141.25,89.77
				z M140.02,92.18c0.27,1.44,0.32,2.78,0.16,3.84c-0.16,0.91-0.54,1.55-0.96,1.82c-0.91,0.54-2.88-0.16-4.96-1.97
				c-0.27-0.22-0.48-0.42-0.74-0.64c0.8-0.91,1.65-1.92,2.46-3.09c1.38-0.1,2.72-0.32,3.95-0.59
				C139.97,91.69,140.02,91.91,140.02,92.18L140.02,92.18L140.02,92.18z M128.02,97.67c-0.91,0.32-1.6,0.32-2.02,0.05
				c-0.91-0.54-1.28-2.56-0.8-5.28c0.05-0.32,0.1-0.64,0.22-0.96c1.18,0.27,2.51,0.42,3.89,0.59c0.8,1.12,1.65,2.19,2.51,3.09
				c-0.16,0.16-0.37,0.37-0.54,0.54C130.16,96.65,128.98,97.35,128.02,97.67L128.02,97.67L128.02,97.67z M123.81,89.77
				c-1.38-0.48-2.56-1.12-3.36-1.82c-0.69-0.64-1.06-1.23-1.06-1.7c0-1.06,1.55-2.4,4.21-3.31c0.32-0.1,0.64-0.22,1.01-0.32
				c0.37,1.18,0.86,2.4,1.38,3.68c-0.59,1.28-1.06,2.51-1.44,3.73C124.29,89.94,124.08,89.88,123.81,89.77L123.81,89.77
				L123.81,89.77z M125.25,80.23c-0.54-2.78-0.16-4.91,0.74-5.39c0.96-0.59,3.09,0.22,5.39,2.24c0.16,0.1,0.27,0.27,0.42,0.42
				c-0.86,0.91-1.65,1.92-2.46,3.04c-1.38,0.1-2.66,0.32-3.84,0.59C125.36,80.81,125.31,80.55,125.25,80.23L125.25,80.23
				L125.25,80.23z M137.73,83.32c-0.27-0.48-0.59-0.96-0.91-1.44c0.91,0.1,1.82,0.27,2.66,0.48c-0.27,0.8-0.59,1.65-0.91,2.51
				C138.32,84.33,138.05,83.85,137.73,83.32L137.73,83.32L137.73,83.32z M132.61,78.36c0.59,0.64,1.12,1.33,1.7,2.08
				c-0.59-0.05-1.12-0.05-1.7-0.05c-0.58,0-1.12,0-1.7,0.05C131.49,79.69,132.08,79,132.61,78.36L132.61,78.36L132.61,78.36z
				 M127.49,83.32c-0.27,0.48-0.54,1.01-0.8,1.5c-0.37-0.86-0.69-1.7-0.91-2.51c0.86-0.16,1.7-0.32,2.61-0.42
				C128.07,82.36,127.81,82.84,127.49,83.32L127.49,83.32L127.49,83.32z M128.39,90.73c-0.96-0.1-1.87-0.27-2.66-0.42
				c0.27-0.8,0.59-1.7,0.96-2.56c0.27,0.48,0.54,1.01,0.8,1.5l0,0C127.81,89.77,128.13,90.26,128.39,90.73L128.39,90.73
				L128.39,90.73z M132.66,94.25c-0.59-0.64-1.18-1.33-1.76-2.08c0.54,0,1.12,0.05,1.7,0.05s1.18,0,1.76-0.05
				C133.79,92.92,133.25,93.61,132.66,94.25L132.66,94.25L132.66,94.25z M138.59,87.7c0.37,0.91,0.69,1.76,0.96,2.56
				c-0.86,0.22-1.76,0.32-2.72,0.48c0.32-0.48,0.59-0.96,0.91-1.5C138.05,88.71,138.32,88.23,138.59,87.7L138.59,87.7L138.59,87.7z
				 M136.67,88.6c-0.42,0.8-0.91,1.55-1.38,2.24c-0.86,0.05-1.76,0.1-2.66,0.1c-0.91,0-1.76-0.05-2.61-0.1
				c-0.48-0.69-0.96-1.5-1.44-2.24l0,0c-0.42-0.8-0.86-1.55-1.23-2.34c0.37-0.8,0.8-1.55,1.23-2.34l0,0
				c0.42-0.8,0.91-1.55,1.38-2.24c0.86-0.05,1.76-0.1,2.61-0.1l0,0c0.91,0,1.76,0.05,2.66,0.1c0.48,0.69,0.96,1.44,1.38,2.24
				c0.48,0.8,0.86,1.55,1.23,2.34C137.52,87.06,137.14,87.85,136.67,88.6L136.67,88.6L136.67,88.6z M139.23,74.78
				c0.96,0.54,1.33,2.83,0.74,5.76c-0.05,0.22-0.1,0.37-0.1,0.59c-1.23-0.27-2.51-0.48-3.89-0.59c-0.8-1.12-1.6-2.19-2.46-3.04
				c0.22-0.22,0.42-0.42,0.64-0.59C136.3,75,138.32,74.25,139.23,74.78L139.23,74.78L139.23,74.78z"/>
			<path class="st19" d="M132.61,83.69c1.44,0,2.61,1.18,2.61,2.61c0,1.44-1.18,2.61-2.61,2.61c-1.44,0-2.61-1.18-2.61-2.61
				C130.05,84.81,131.17,83.69,132.61,83.69"/>
		</g>
	</g>
</g>
<circle class="st0" cx="272.66" cy="210" r="65.29"/>
<path d="M297.07,203.5c0,1.67,0,11.35,0,13.01c0,1.67-1.14,3.17-2.89,3.17c-1.75,0-2.89-1.57-2.89-3.17s0-11.42,0-13.01
	c0-1.59,1.14-3.17,2.89-3.17C295.93,200.33,297.07,201.83,297.07,203.5z M272.66,154.97c-30.39,0-55.03,24.64-55.03,55.03
	c0,30.39,24.64,55.03,55.03,55.03s55.03-24.64,55.03-55.03S303.06,154.97,272.66,154.97z M253.59,222.34c0,1.6-1.29,2.89-2.89,2.89
	h-0.71c-1.6,0-2.89-1.29-2.89-2.89v-24.68c0-1.6,1.29-2.89,2.89-2.89h0.71c1.6,0,2.89,1.29,2.89,2.89V222.34z M279,186.22
	l-12.99,48.5c-0.22,0.8-0.93,1.35-1.76,1.35h-1.17c-1.19,0-2.06-1.14-1.76-2.29l12.99-48.5c0.22-0.8,0.93-1.35,1.76-1.35h1.17
	C278.44,183.93,279.32,185.06,279,186.22z M303.57,216.15c0,8.63-5.7,9.85-9.02,9.85h-0.72c-3.32,0-9.02-1.21-9.02-9.85
	c0-3.42,0-8.89,0-12.31c0-8.63,5.7-9.85,9.02-9.85h0.72c3.32,0,9.02,1.21,9.02,9.85C303.57,207.26,303.57,212.74,303.57,216.15z"/>
<circle class="st0" cx="334.25" cy="35.05" r="21.55"/>
<circle class="st0" cx="212.51" cy="386.61" r="21.55"/>
<g>
	<path class="st20" d="M210.13,391.03c2.03-1.41,2.56-4.17,1.14-6.21l-3.66,2.5c-1.04,0.68-2.45,0.32-3.08-0.74
		c-0.63-0.99-0.36-2.3,0.57-2.98l3.39-2.3l2.2-1.52c2.03-1.41,2.56-4.17,1.14-6.21l-3.7,2.56l-5.52,3.81
		c-3.18,2.03-4.02,6.16-1.99,9.29c2.03,3.13,6.21,3.96,9.29,1.93C209.97,391.13,210.07,391.08,210.13,391.03L210.13,391.03z"/>
	<path class="st20" d="M214.98,382.27c-2.03,1.41-2.56,4.17-1.14,6.21l3.7-2.56c1.04-0.68,2.45-0.36,3.08,0.68
		c0.63,0.99,0.36,2.3-0.57,3.03l-3.39,2.3l-2.2,1.52c-2.03,1.41-2.56,4.17-1.14,6.21l3.7-2.56l5.52-3.81
		c3.08-2.09,3.87-6.26,1.78-9.34C222.28,380.96,218.11,380.17,214.98,382.27C215.04,382.27,215.04,382.27,214.98,382.27
		L214.98,382.27z"/>
</g>
<g>
	<path class="st0" d="M339.22,24.84v0.95c0,0-1.72-0.63-2.81,0.53c-0.81,0.84-0.88,1.75-0.5,3.02c3.62,0,4.18,2.01,4.18,2.01
		l-0.35-2.32l1.12-1.37C340.87,25.99,339.5,24.9,339.22,24.84z"/>
	<circle cx="339.54" cy="27.19" r="0.42"/>
	<path d="M340.1,31.33c0,0-0.56-2.78-4.15-2.01c-0.35-1.27-0.31-2.18,0.5-3.02c1.09-1.16,2.78-0.53,2.78-0.53v-0.95
		c-0.6-0.28-1.16-0.31-1.79-0.31c-2.32,0-3.62,1.72-4.15,2.92l-6.54,12.02l1.82-0.35l-3.37,6.5l2.35-0.42l1.79-5.13
		C334.47,40.05,341.01,38.22,340.1,31.33z"/>
	<path d="M342.31,29.01l-1.44-1.37l-1.16,1.37H342.31z"/>
	<path class="st0" d="M330.19,38.57c0,0,0.17-0.03,0.46-0.1c0.31-0.07,0.7-0.17,1.23-0.31c0.24-0.07,0.53-0.14,0.81-0.24
		s0.6-0.21,0.88-0.31c0.31-0.1,0.6-0.28,0.91-0.42c0.31-0.17,0.6-0.35,0.84-0.56c0.07-0.03,0.14-0.1,0.21-0.17l0.21-0.17l0.35-0.35
		c0.1-0.1,0.21-0.24,0.31-0.39c0.03-0.07,0.1-0.14,0.14-0.21l0.07-0.1l0.07-0.1c0.03-0.07,0.07-0.14,0.1-0.21
		c0.03-0.07,0.07-0.14,0.1-0.21c0.03-0.03,0.03-0.07,0.03-0.1c0.03-0.03,0.03-0.07,0.03-0.1c0.03-0.07,0.07-0.14,0.07-0.21
		c0.03-0.14,0.1-0.28,0.14-0.39c0.03-0.14,0.07-0.28,0.1-0.39c0.03-0.1,0.03-0.24,0.07-0.35c0.04-0.11,0.03-0.21,0.03-0.31
		c0.03-0.1,0.03-0.21,0.03-0.28c0.03-0.07,0.03-0.17,0.03-0.24c0.03-0.31,0.03-0.46,0.03-0.46l0.28,0.03c0,0-0.03,0.17-0.03,0.5
		c-0.03,0.07-0.03,0.17-0.03,0.24c-0.03,0.1-0.03,0.21-0.03,0.31c-0.03,0.1-0.03,0.21-0.07,0.31c-0.04,0.1-0.07,0.24-0.1,0.35
		c-0.03,0.14-0.07,0.24-0.14,0.39c-0.03,0.14-0.1,0.28-0.17,0.42c-0.03,0.07-0.07,0.14-0.1,0.21c-0.03,0.03-0.03,0.07-0.03,0.1
		c-0.03,0.03-0.03,0.07-0.03,0.1c-0.03,0.07-0.07,0.14-0.1,0.21c-0.03,0.07-0.07,0.14-0.14,0.21c-0.03,0.03-0.03,0.07-0.07,0.1
		l-0.07,0.1c-0.03,0.07-0.1,0.14-0.14,0.21c-0.1,0.14-0.21,0.28-0.35,0.39c-0.1,0.14-0.24,0.24-0.39,0.35l-0.21,0.17
		c-0.07,0.03-0.14,0.1-0.21,0.14c-0.28,0.21-0.6,0.39-0.88,0.56c-0.31,0.14-0.63,0.31-0.91,0.42c-0.31,0.1-0.6,0.21-0.88,0.31
		c-0.28,0.07-0.56,0.17-0.81,0.21c-0.5,0.1-0.95,0.21-1.23,0.28C330.37,38.54,330.19,38.57,330.19,38.57L330.19,38.57z"/>
</g>
</svg>
